<svg xmlns="http://www.w3.org/2000/svg" width="167.576" height="31.693" viewBox="0 0 167.576 31.693"><defs><style>.a{fill:#fefefe;}.b{fill:#2b3bff;}</style></defs><g transform="translate(-2384 -13315)"><g transform="translate(2384 13315)"><path class="a" d="M6711.7,13975.135h9.962v4.223h-15.135V13961h5.173Zm28.391,4.223-1.291-3.645h-8.568l-1.291,3.645h-5.182l6.876-18.221h7.929l6.906,18.221Zm20.224,0-7.6-7.238v7.238h-5.173V13961h5.173v7.188l7.134-7.187h6.081l-8.858,9.168,9.54,9.189ZM6661.129,13961v4.225h-6.483v14.133h-5.162v-14.133H6643V13961Zm16.942,0h5.171v18.357h-5.171v-7.238h-8.26v7.238h-5.173V13961h5.173v6.9h8.26Zm13.844,14.342h11.1v4.016h-16.26V13961h16.26v4.018h-11.1v3.119h11.1v3.777h-11.1Z" transform="translate(-6599.032 -13954.33)"/><path class="b" d="M2408.364,13346.694h15.868l-6.442-17.623H2406.32q2.57-7.031,5.141-14.07h-15.878q-5.791,15.844-11.583,31.693h15.878l4.243-11.6Q2406.243,13340.9,2408.364,13346.694Z" transform="translate(-2384 -13315.001)"/></g></g></svg>