<svg xmlns="http://www.w3.org/2000/svg" width="196.282" height="34.921" viewBox="0 0 196.282 34.921"><defs><style>.a{fill:#d9dce5;}</style></defs><g transform="translate(-157.695 -1008)"><g transform="translate(157.695 1008)"><path class="a" d="M804.246,1032.911a2.7,2.7,0,0,0,.452,1.656,1.93,1.93,0,0,0,1.58.6h3.763a1.285,1.285,0,0,1,1.279,1.28v4.741a1.285,1.285,0,0,1-1.279,1.279H805.6a13.571,13.571,0,0,1-4.064-.6,8.513,8.513,0,0,1-3.086-1.882,8.208,8.208,0,0,1-2.032-2.935,10.391,10.391,0,0,1-.677-3.913v-7.9H792.28a1.247,1.247,0,0,1-.9-.376,1.013,1.013,0,0,1-.376-.9v-4.741a1.285,1.285,0,0,1,1.28-1.28h3.462v-7.677a1.247,1.247,0,0,1,.376-.9,1.013,1.013,0,0,1,.9-.376h5.946a1.013,1.013,0,0,1,.9.376,1.247,1.247,0,0,1,.376.9v7.677h5.344a1.192,1.192,0,0,1,.9.376,1.247,1.247,0,0,1,.376.9v4.741a1.247,1.247,0,0,1-.376.9,1.564,1.564,0,0,1-.9.376h-5.344Zm36.276,8.279a1.285,1.285,0,0,1-1.279,1.279H833.3a1.285,1.285,0,0,1-1.279-1.279v-11.967a4.887,4.887,0,0,0-.978-3.236,3.83,3.83,0,0,0-3.161-1.2,3.767,3.767,0,0,0-3.086,1.2,5.338,5.338,0,0,0-.978,3.236v11.967a1.013,1.013,0,0,1-.376.9,1.246,1.246,0,0,1-.9.376h-5.946a1.564,1.564,0,0,1-.9-.376,1.247,1.247,0,0,1-.376-.9v-30.932a1.247,1.247,0,0,1,.376-.9,1.193,1.193,0,0,1,.9-.376h5.946a1.285,1.285,0,0,1,1.279,1.279v10.01a9.018,9.018,0,0,1,2.559-1.882,8.123,8.123,0,0,1,3.914-.9,12.248,12.248,0,0,1,4.139.6,8.309,8.309,0,0,1,3.236,1.957,9.6,9.6,0,0,1,2.107,3.387,13.216,13.216,0,0,1,.753,4.817Zm12.569-8.279a3.611,3.611,0,0,0,1.43,2.935,5.035,5.035,0,0,0,1.355.527,5.622,5.622,0,0,0,1.505.226,9.105,9.105,0,0,0,2.258-.3,4.1,4.1,0,0,0,1.355-.828,4.771,4.771,0,0,1,.753-.527,2.017,2.017,0,0,1,.828-.15h6.171c.677,0,.978.376.978,1.054a3.949,3.949,0,0,1-.677,1.731,10.34,10.34,0,0,1-2.183,2.408,13.084,13.084,0,0,1-3.838,2.032,18.361,18.361,0,0,1-11.139.075,11.019,11.019,0,0,1-3.989-2.559,11.233,11.233,0,0,1-2.484-3.989,16.937,16.937,0,0,1-.828-5.344,16.209,16.209,0,0,1,.828-5.118,12.749,12.749,0,0,1,2.484-3.989,12.472,12.472,0,0,1,3.989-2.709,15.875,15.875,0,0,1,5.494-.9,14.086,14.086,0,0,1,5.87,1.129,10.769,10.769,0,0,1,3.989,3.01,11.5,11.5,0,0,1,2.183,4.139,15.644,15.644,0,0,1,.677,4.516v1.354a1.192,1.192,0,0,1-.376.9,1.247,1.247,0,0,1-.9.376Zm4.29-9.107a3.609,3.609,0,0,0-3.01,1.2,5.1,5.1,0,0,0-1.279,2.634h8.5a4.48,4.48,0,0,0-1.2-2.634A3.707,3.707,0,0,0,857.381,1023.8Zm55.769,17.385a1.285,1.285,0,0,1-1.279,1.279h-5.72a1.564,1.564,0,0,1-.9-.376,1.246,1.246,0,0,1-.376-.9v-12.042a5.577,5.577,0,0,0-.828-3.387,3.355,3.355,0,0,0-2.634-.978,3.127,3.127,0,0,0-2.484.978,5.07,5.07,0,0,0-.9,3.387v12.042a1.013,1.013,0,0,1-.376.9,1.247,1.247,0,0,1-.9.376h-5.72a1.564,1.564,0,0,1-.9-.376,1.247,1.247,0,0,1-.376-.9v-12.042a5.1,5.1,0,0,0-.828-3.387,3.836,3.836,0,0,0-5.118,0,4.622,4.622,0,0,0-.9,3.236v12.192a1.013,1.013,0,0,1-.376.9,1.247,1.247,0,0,1-.9.376h-5.946a1.564,1.564,0,0,1-.9-.376,1.246,1.246,0,0,1-.376-.9v-21.976a1.247,1.247,0,0,1,.376-.9,1.192,1.192,0,0,1,.9-.376h5.72a1.285,1.285,0,0,1,1.279,1.28v1.054a6.682,6.682,0,0,1,2.559-2.032,7.128,7.128,0,0,1,3.462-.753,11.565,11.565,0,0,1,4.365.828,8.024,8.024,0,0,1,3.161,2.785,9.171,9.171,0,0,1,3.387-2.709,9.854,9.854,0,0,1,4.215-.9,10.393,10.393,0,0,1,3.763.6,7.746,7.746,0,0,1,2.935,1.957,9.337,9.337,0,0,1,1.957,3.387,15.175,15.175,0,0,1,.677,4.817Zm13.773,0a1.247,1.247,0,0,1-.376.9,1.564,1.564,0,0,1-.9.376H919.7a1.247,1.247,0,0,1-.9-.376,1.013,1.013,0,0,1-.376-.9v-21.976a1.285,1.285,0,0,1,1.279-1.28h5.946a1.192,1.192,0,0,1,.9.376,1.247,1.247,0,0,1,.376.9Zm0-27.169a1.247,1.247,0,0,1-.376.9,1.192,1.192,0,0,1-.9.376H919.7a1.285,1.285,0,0,1-1.279-1.28v-4.741a1.013,1.013,0,0,1,.376-.9,1.246,1.246,0,0,1,.9-.376h5.946a1.563,1.563,0,0,1,.9.376,1.246,1.246,0,0,1,.376.9Zm30.631,27.169a1.246,1.246,0,0,1-.376.9,1.389,1.389,0,0,1-.9.376h-5.946a1.285,1.285,0,0,1-1.279-1.279v-11.967a4.888,4.888,0,0,0-.978-3.236,3.831,3.831,0,0,0-3.161-1.2,3.671,3.671,0,0,0-3.086,1.2,5.338,5.338,0,0,0-.978,3.236v11.967a1.013,1.013,0,0,1-.376.9,1.247,1.247,0,0,1-.9.376h-5.946a1.564,1.564,0,0,1-.9-.376,1.246,1.246,0,0,1-.376-.9v-21.976a1.247,1.247,0,0,1,.376-.9,1.192,1.192,0,0,1,.9-.376h5.72a1.285,1.285,0,0,1,1.279,1.28v1.054l.978-.978a4.268,4.268,0,0,1,1.355-.9,6.13,6.13,0,0,1,1.882-.677,11.642,11.642,0,0,1,2.484-.226,12.247,12.247,0,0,1,4.139.6,8.311,8.311,0,0,1,3.236,1.957,9.6,9.6,0,0,1,2.107,3.387,13.219,13.219,0,0,1,.753,4.817Zm14.9-23.707a11.9,11.9,0,0,1,2.408.226,7.455,7.455,0,0,1,1.731.753,4.285,4.285,0,0,1,1.279.9,5.1,5.1,0,0,1,.9.9v-10.01a1.285,1.285,0,0,1,1.279-1.279H986a1.192,1.192,0,0,1,.9.376,1.247,1.247,0,0,1,.376.9v30.932a1.246,1.246,0,0,1-.376.9,1.564,1.564,0,0,1-.9.376h-5.72a1.247,1.247,0,0,1-.9-.376,1.013,1.013,0,0,1-.376-.9v-1.054c-.3.3-.6.677-.9.979a3.933,3.933,0,0,1-1.279.9,5.031,5.031,0,0,1-1.806.677,12.4,12.4,0,0,1-2.559.226,12.089,12.089,0,0,1-4.064-.6,10.421,10.421,0,0,1-3.311-1.957,11.1,11.1,0,0,1-2.258-3.387,13.366,13.366,0,0,1-.978-4.817c0-.527-.075-1.129-.075-1.957,0-.753.075-1.43.075-1.881a13.033,13.033,0,0,1,.978-4.817,11.1,11.1,0,0,1,2.258-3.387,9.38,9.38,0,0,1,3.311-2.032A12.089,12.089,0,0,1,972.456,1017.483Zm-2.183,11.365a16.273,16.273,0,0,0,0,2.709,5.609,5.609,0,0,0,1.129,2.86,3.642,3.642,0,0,0,3.161,1.2,4.556,4.556,0,0,0,1.806-.3,3.624,3.624,0,0,0,1.2-.9,4.3,4.3,0,0,0,.828-1.2,9.111,9.111,0,0,0,.376-1.355c0-.452.075-1.054.075-1.656s-.075-1.2-.075-1.656a9.111,9.111,0,0,0-.376-1.355,4.307,4.307,0,0,0-.828-1.2,3.629,3.629,0,0,0-1.2-.9,4.556,4.556,0,0,0-1.806-.3,3.642,3.642,0,0,0-3.161,1.2A5.609,5.609,0,0,0,970.273,1028.847Z" transform="translate(-791 -1008)"/></g></g></svg>