<svg xmlns="http://www.w3.org/2000/svg" width="60.719" height="60.719" viewBox="0 0 60.719 60.719"><defs><style>.a{fill:#fff;}</style></defs><path class="a" d="M30.359,0A30.359,30.359,0,1,0,60.719,30.359,30.393,30.393,0,0,0,30.359,0Zm0,58.189a27.83,27.83,0,1,1,27.83-27.83A27.861,27.861,0,0,1,30.359,58.189Z"/><path class="a" d="M211.659,160.917l-17.71-11.385A1.265,1.265,0,0,0,192,150.6v22.77a1.265,1.265,0,0,0,1.949,1.064l17.71-11.385a1.265,1.265,0,0,0,0-2.127ZM194.53,171.048V152.914l14.105,9.067Z" transform="translate(-169.23 -131.622)"/></svg>